<mxfile host="app.diagrams.net" modified="2024-05-30T22:51:55.422Z" agent="Mozilla/5.0 (X11; Linux x86_64) AppleWebKit/537.36 (KHTML, like Gecko) Chrome/125.0.0.0 Safari/537.36" etag="RWoqKSxP2V_q-ZJDq9LD" version="24.4.9" type="device">
  <diagram name="Page-1" id="T5I-39zUhY-CpWxyedti">
    <mxGraphModel dx="810" dy="447" grid="1" gridSize="10" guides="1" tooltips="1" connect="1" arrows="1" fold="1" page="1" pageScale="1" pageWidth="850" pageHeight="1100" math="0" shadow="0">
      <root>
        <mxCell id="0" />
        <mxCell id="1" parent="0" />
        <mxCell id="h5vDOmOoOmSrKCh5Haf8-1" value="" style="rounded=0;whiteSpace=wrap;html=1;" parent="1" vertex="1">
          <mxGeometry x="230" y="200" width="410" height="470" as="geometry" />
        </mxCell>
        <mxCell id="h5vDOmOoOmSrKCh5Haf8-2" value="Customer" style="shape=umlActor;verticalLabelPosition=bottom;verticalAlign=top;html=1;outlineConnect=0;" parent="1" vertex="1">
          <mxGeometry x="110" y="320" width="30" height="60" as="geometry" />
        </mxCell>
        <mxCell id="h5vDOmOoOmSrKCh5Haf8-3" value="Modify&lt;div&gt;Rent&lt;/div&gt;" style="ellipse;whiteSpace=wrap;html=1;aspect=fixed;" parent="1" vertex="1">
          <mxGeometry x="250" y="390" width="80" height="80" as="geometry" />
        </mxCell>
        <mxCell id="h5vDOmOoOmSrKCh5Haf8-4" value="" style="endArrow=none;html=1;rounded=0;" parent="1" source="h5vDOmOoOmSrKCh5Haf8-2" target="h5vDOmOoOmSrKCh5Haf8-3" edge="1">
          <mxGeometry width="50" height="50" relative="1" as="geometry">
            <mxPoint x="180" y="380" as="sourcePoint" />
            <mxPoint x="230" y="340" as="targetPoint" />
          </mxGeometry>
        </mxCell>
        <mxCell id="P18UPPdx0Lrw_8kCdgW8-4" value="" style="edgeStyle=orthogonalEdgeStyle;rounded=0;orthogonalLoop=1;jettySize=auto;html=1;" parent="1" source="h5vDOmOoOmSrKCh5Haf8-5" target="h5vDOmOoOmSrKCh5Haf8-1" edge="1">
          <mxGeometry relative="1" as="geometry" />
        </mxCell>
        <mxCell id="h5vDOmOoOmSrKCh5Haf8-5" value="&lt;b&gt;&lt;font style=&quot;font-size: 14px;&quot;&gt;Cancel Rent Request&lt;/font&gt;&lt;/b&gt;" style="text;strokeColor=none;align=center;fillColor=none;html=1;verticalAlign=middle;whiteSpace=wrap;rounded=0;" parent="1" vertex="1">
          <mxGeometry x="340" y="150" width="156" height="30" as="geometry" />
        </mxCell>
        <mxCell id="h5vDOmOoOmSrKCh5Haf8-6" value="Search for a rent" style="ellipse;whiteSpace=wrap;html=1;aspect=fixed;" parent="1" vertex="1">
          <mxGeometry x="430" y="210" width="80" height="80" as="geometry" />
        </mxCell>
        <mxCell id="h5vDOmOoOmSrKCh5Haf8-7" value="" style="endArrow=none;html=1;rounded=0;entryX=0.025;entryY=0.65;entryDx=0;entryDy=0;entryPerimeter=0;dashed=1;endFill=0;startArrow=open;startFill=0;" parent="1" source="h5vDOmOoOmSrKCh5Haf8-3" target="h5vDOmOoOmSrKCh5Haf8-6" edge="1">
          <mxGeometry width="50" height="50" relative="1" as="geometry">
            <mxPoint x="190" y="420" as="sourcePoint" />
            <mxPoint x="341" y="379" as="targetPoint" />
          </mxGeometry>
        </mxCell>
        <mxCell id="h5vDOmOoOmSrKCh5Haf8-8" value="Select Rent" style="ellipse;whiteSpace=wrap;html=1;aspect=fixed;direction=south;" parent="1" vertex="1">
          <mxGeometry x="438" y="320" width="80" height="80" as="geometry" />
        </mxCell>
        <mxCell id="h5vDOmOoOmSrKCh5Haf8-9" value="" style="endArrow=none;html=1;rounded=0;entryX=0.5;entryY=1;entryDx=0;entryDy=0;dashed=1;startArrow=open;startFill=0;exitX=1.025;exitY=0.613;exitDx=0;exitDy=0;exitPerimeter=0;" parent="1" source="h5vDOmOoOmSrKCh5Haf8-3" target="h5vDOmOoOmSrKCh5Haf8-8" edge="1">
          <mxGeometry width="50" height="50" relative="1" as="geometry">
            <mxPoint x="350" y="360" as="sourcePoint" />
            <mxPoint x="430" y="383" as="targetPoint" />
          </mxGeometry>
        </mxCell>
        <mxCell id="h5vDOmOoOmSrKCh5Haf8-12" value="&amp;lt;includes&amp;gt;" style="text;strokeColor=none;align=center;fillColor=none;html=1;verticalAlign=middle;whiteSpace=wrap;rounded=0;rotation=-45;" parent="1" vertex="1">
          <mxGeometry x="330" y="315" width="60" height="30" as="geometry" />
        </mxCell>
        <mxCell id="h5vDOmOoOmSrKCh5Haf8-13" value="&amp;lt;includes&amp;gt;" style="text;strokeColor=none;align=center;fillColor=none;html=1;verticalAlign=middle;whiteSpace=wrap;rounded=0;rotation=-35;" parent="1" vertex="1">
          <mxGeometry x="345" y="380" width="65" height="30" as="geometry" />
        </mxCell>
        <mxCell id="h5vDOmOoOmSrKCh5Haf8-18" value="Make Cancel Request" style="ellipse;whiteSpace=wrap;html=1;aspect=fixed;" parent="1" vertex="1">
          <mxGeometry x="470" y="455" width="80" height="80" as="geometry" />
        </mxCell>
        <mxCell id="h5vDOmOoOmSrKCh5Haf8-19" value="" style="endArrow=none;html=1;rounded=0;entryX=0.063;entryY=0.338;entryDx=0;entryDy=0;entryPerimeter=0;dashed=1;startArrow=open;startFill=0;exitX=1;exitY=1;exitDx=0;exitDy=0;" parent="1" source="h5vDOmOoOmSrKCh5Haf8-3" target="h5vDOmOoOmSrKCh5Haf8-18" edge="1">
          <mxGeometry width="50" height="50" relative="1" as="geometry">
            <mxPoint x="327" y="480" as="sourcePoint" />
            <mxPoint x="448" y="684" as="targetPoint" />
          </mxGeometry>
        </mxCell>
        <mxCell id="h5vDOmOoOmSrKCh5Haf8-20" value="&amp;lt;includes&amp;gt;" style="text;strokeColor=none;align=center;fillColor=none;html=1;verticalAlign=middle;whiteSpace=wrap;rounded=0;rotation=5;" parent="1" vertex="1">
          <mxGeometry x="390" y="440" width="60" height="30" as="geometry" />
        </mxCell>
        <mxCell id="ttBZwTx71wYVw3HDpPPG-1" value="Notify Admins" style="ellipse;whiteSpace=wrap;html=1;aspect=fixed;" vertex="1" parent="1">
          <mxGeometry x="410" y="570" width="80" height="80" as="geometry" />
        </mxCell>
        <mxCell id="ttBZwTx71wYVw3HDpPPG-2" value="" style="endArrow=none;html=1;rounded=0;entryX=0.075;entryY=0.2;entryDx=0;entryDy=0;entryPerimeter=0;dashed=1;startArrow=open;startFill=0;exitX=0.5;exitY=1;exitDx=0;exitDy=0;" edge="1" parent="1" source="h5vDOmOoOmSrKCh5Haf8-3" target="ttBZwTx71wYVw3HDpPPG-1">
          <mxGeometry width="50" height="50" relative="1" as="geometry">
            <mxPoint x="253" y="550" as="sourcePoint" />
            <mxPoint x="410" y="574" as="targetPoint" />
          </mxGeometry>
        </mxCell>
      </root>
    </mxGraphModel>
  </diagram>
</mxfile>
